<?xml version="1.0" standalone="no"?>
<!DOCTYPE svg PUBLIC "-//W3C//DTD SVG 20010904//EN"
 "http://www.w3.org/TR/2001/REC-SVG-20010904/DTD/svg10.dtd">
<svg version="1.0" xmlns="http://www.w3.org/2000/svg"
 width="518.000000pt" height="518.000000pt" viewBox="0 0 518.000000 518.000000"
 preserveAspectRatio="xMidYMid meet">
<metadata>
Created by potrace 1.14, written by Peter Selinger 2001-2017
</metadata>
<g transform="translate(0.000000,518.000000) scale(0.100000,-0.100000)"
fill="#000000" stroke="none">
<path d="M1599 5091 c-16 -16 -29 -40 -29 -53 0 -13 48 -190 106 -394 58 -203
108 -378 111 -389 3 -11 34 -121 70 -244 35 -123 65 -229 66 -235 1 -6 -69
-47 -156 -91 -86 -45 -164 -88 -173 -97 -8 -8 -82 -257 -163 -553 l-147 -539
-83 -27 c-522 -176 -909 -460 -1057 -775 -55 -120 -69 -183 -68 -329 0 -114 4
-140 28 -213 116 -353 471 -650 1021 -854 114 -42 358 -113 455 -132 14 -2 48
-9 75 -15 28 -6 59 -12 70 -14 24 -5 144 -24 200 -32 22 -3 54 -7 70 -10 242
-36 763 -46 1050 -20 68 6 314 40 365 50 14 3 41 8 60 11 37 7 227 52 320 77
189 51 535 184 567 219 15 17 19 43 23 168 l5 148 120 -59 c66 -33 132 -61
147 -61 36 -1 100 38 180 111 220 202 340 535 282 783 -73 312 -342 592 -769
802 -127 63 -353 152 -447 177 -35 10 -50 20 -57 38 -6 15 -141 418 -300 897
-159 479 -295 881 -303 893 -18 30 -1539 791 -1580 791 -19 0 -40 -10 -59 -29z
m-261 -3576 c9 -5 19 -13 22 -16 3 -3 38 -25 79 -49 187 -108 409 -188 601
-216 30 -4 58 -9 63 -10 4 -1 12 -2 17 -3 13 -1 14 -371 0 -371 -27 0 -246 55
-325 82 -273 92 -487 238 -561 380 -35 69 -44 124 -28 186 26 102 20 96 70 60
24 -18 52 -37 62 -43z m2647 -3 c28 -87 27 -99 -22 -200 -77 -158 -333 -319
-653 -409 -59 -16 -219 -53 -232 -53 -4 0 -8 83 -8 184 l0 184 73 12 c108 18
243 54 353 96 99 36 275 123 305 150 8 8 19 14 22 14 4 0 35 20 69 45 34 25
65 42 69 37 3 -4 14 -31 24 -60z m-1380 -326 c66 0 155 3 198 6 l77 6 1 -36
c2 -128 -1 -336 -7 -341 -7 -8 -540 -8 -548 0 -5 5 -9 188 -7 330 l1 47 83 -6
c45 -3 136 -6 202 -6z"/>
</g>
</svg>
